<svg width="32" height="32" viewBox="0 0 32 32" fill="none" xmlns="http://www.w3.org/2000/svg">
<rect width="32" height="32" fill="white"/>
<g clip-path="url(#clip0_2004_20)">
<path fill-rule="evenodd" clip-rule="evenodd" d="M27.8396 4.87077C27.8395 4.68239 27.7647 4.50176 27.6315 4.36856C27.4982 4.23536 27.3176 4.16049 27.1292 4.1604H4.87079C4.68241 4.16049 4.50178 4.23537 4.36858 4.36857C4.23537 4.50177 4.1605 4.6824 4.1604 4.87077V27.1293C4.1605 27.3177 4.23537 27.4983 4.36858 27.6315C4.50178 27.7647 4.68241 27.8396 4.87079 27.8396H27.1292C27.3176 27.8396 27.4982 27.7647 27.6315 27.6315C27.7647 27.4983 27.8395 27.3177 27.8396 27.1293V4.87077Z" fill="#144E8C"/>
<mask id="mask0_2004_20" style="mask-type:luminance" maskUnits="userSpaceOnUse" x="4" y="4" width="24" height="24">
<path d="M27.1292 4.1604H4.8708C4.47846 4.1604 4.1604 4.47846 4.1604 4.8708V27.1292C4.1604 27.5216 4.47846 27.8396 4.8708 27.8396H27.1292C27.5216 27.8396 27.8396 27.5216 27.8396 27.1292V4.8708C27.8396 4.47846 27.5216 4.1604 27.1292 4.1604Z" fill="white"/>
</mask>
<g mask="url(#mask0_2004_20)">
<path fill-rule="evenodd" clip-rule="evenodd" d="M27.8396 4.87077C27.8395 4.68239 27.7647 4.50176 27.6315 4.36856C27.4982 4.23536 27.3176 4.16049 27.1292 4.1604H4.87079C4.68241 4.16049 4.50178 4.23537 4.36858 4.36857C4.23537 4.50177 4.1605 4.6824 4.1604 4.87077V27.1293C4.1605 27.3177 4.23537 27.4983 4.36858 27.6315C4.50178 27.7647 4.68241 27.8396 4.87079 27.8396H27.1292C27.3176 27.8396 27.4982 27.7647 27.6315 27.6315C27.7647 27.4983 27.8395 27.3177 27.8396 27.1293V4.87077Z" fill="#1B72BE"/>
<path fill-rule="evenodd" clip-rule="evenodd" d="M27.8396 4.87077C27.8395 4.68239 27.7647 4.50176 27.6315 4.36856C27.4982 4.23536 27.3176 4.16049 27.1292 4.1604H13.8689L4.1604 20.976V27.1293C4.1605 27.3177 4.23537 27.4983 4.36858 27.6315C4.50178 27.7647 4.68241 27.8396 4.87079 27.8396H27.1292C27.3176 27.8396 27.4982 27.7647 27.6315 27.6315C27.7647 27.4983 27.8395 27.3177 27.8396 27.1293V4.87077Z" fill="#0568AA"/>
<path fill-rule="evenodd" clip-rule="evenodd" d="M15.1085 27.8396H13.4571L9.19156 19.264L17.5039 4.1604H18.8415L10.1394 19.2329L15.1085 27.8396ZM19.582 27.8396H15.4637L10.611 19.4345H27.8413L27.8396 21.0038L19.582 27.8396ZM15.4887 4.1604H14.1057L4.1604 21.3861V23.7816L15.4887 4.1604ZM17.8911 19.1247H13.2074C12.9387 19.1264 12.6743 19.0571 12.441 18.9238C12.2077 18.7904 12.0138 18.5978 11.879 18.3653C11.7441 18.1329 11.6731 17.869 11.6731 17.6002C11.6731 17.3315 11.7441 17.0676 11.879 16.8351L14.2241 12.7733L17.8911 19.1247ZM27.8396 19.1247H18.2463L14.4016 12.4656L19.1967 4.1604L20.9341 4.16149L18.4106 12.7462L19.582 15.1524L27.8396 18.3997L27.8396 19.1247Z" fill="#074F7F"/>
<path fill-rule="evenodd" clip-rule="evenodd" d="M27.8395 27.8396H15.8188L11.1438 19.7422H27.8395V27.8396ZM14.7533 27.8396H4.1604V22.0014L14.4608 4.1604H18.4863L9.78419 19.233L14.7533 27.8396ZM17.3592 18.8188H13.2892C13.0661 18.8196 12.8468 18.7615 12.6533 18.6504C12.4598 18.5393 12.2991 18.3791 12.1874 18.1859C12.0756 17.9928 12.0169 17.7736 12.017 17.5505C12.017 17.3274 12.076 17.1083 12.1879 16.9152C13.092 15.3493 14.224 13.3886 14.224 13.3886L17.3592 18.8188ZM27.8395 18.8188H18.4253L14.7568 12.4657L19.5518 4.1604H27.8395L27.8395 18.8188Z" fill="url(#paint0_radial_2004_20)"/>
<path fill-rule="evenodd" clip-rule="evenodd" d="M28.3891 28.275H16.0704L11.144 19.7421H28.3805L28.3891 28.275ZM9.7843 19.2329L15.0048 28.275H3.43379L3.39502 23.3271L14.7469 3.66504H18.7724L9.7843 19.2329ZM11.6361 20.0263L16.2344 27.991H28.1046L28.0968 20.0263H11.6361ZM14.911 3.94924L3.67978 23.4022L3.71572 27.991H14.5127L9.45619 19.2329L18.2802 3.94924H14.911ZM17.3593 18.8188H13.2787L13.2734 18.8186H13.2628L13.2575 18.8183H13.2522L13.2469 18.8181L13.2416 18.8179L13.2363 18.8176L13.231 18.8174L13.2257 18.8172L13.2204 18.8169L13.2151 18.8167L13.2099 18.8162L13.2046 18.816L13.1993 18.8156L13.1941 18.8153L13.1888 18.8149L13.1836 18.8144L13.1783 18.8139L13.1731 18.8135L13.1679 18.813L13.1626 18.8125L13.1574 18.8121L13.1521 18.8114L13.1469 18.8109L13.1417 18.8102L13.1365 18.8098L13.1313 18.8091L13.1261 18.8084L13.1209 18.8077L13.1157 18.807L13.1105 18.8063L13.1053 18.8056L13.1002 18.8049L13.095 18.804L13.0898 18.8033L13.0847 18.8023L13.0795 18.8017L13.0744 18.8007L13.0692 18.7998L13.0641 18.7989L13.0589 18.7979L13.0538 18.797L13.0487 18.7961L13.0436 18.7952L13.0385 18.794L13.0334 18.7931L13.0283 18.7919L13.0232 18.791L13.0181 18.7898L13.013 18.7887L13.0079 18.7875L13.0029 18.7866L12.9978 18.7852L12.9927 18.7841L12.9877 18.7829L12.9827 18.7817L12.9776 18.7804L12.9726 18.7792L12.9676 18.778L12.9626 18.7767L12.9575 18.7753L12.9526 18.7739L12.9476 18.7725L12.9426 18.7711L12.9376 18.7697L12.9326 18.7683L12.9276 18.7669L12.9227 18.7655L12.9177 18.7639L12.9128 18.7625L12.9078 18.7609L12.9029 18.7593L12.898 18.7579L12.8931 18.7563L12.8882 18.7547L12.8832 18.7531L12.8783 18.7514L12.8735 18.7496L12.8686 18.748L12.8637 18.7463L12.8588 18.7447L12.854 18.7429L12.8491 18.741L12.8443 18.7394L12.8395 18.7376L12.8347 18.7357L12.8298 18.7338L12.825 18.732L12.8202 18.7301L12.8154 18.7283L12.8106 18.7264L12.8059 18.7244L12.8011 18.7225L12.7964 18.7204L12.7916 18.7186L12.7869 18.7165L12.7821 18.7144L12.7774 18.7123L12.7727 18.7105L12.768 18.7082L12.7633 18.7061L12.7586 18.704L12.7539 18.7019L12.7493 18.6998L12.7446 18.6975L12.74 18.6954L12.7353 18.6931L12.7307 18.691L12.7261 18.6887L12.7215 18.6864L12.7169 18.6841L12.7123 18.6818L12.7077 18.6795L12.7031 18.6771L12.6986 18.6748L12.694 18.6725L12.6895 18.67L12.6849 18.6677L12.6804 18.6651L12.6759 18.6628L12.6714 18.6603L12.6669 18.6577L12.6624 18.6552L12.6579 18.6526L12.6534 18.6503L12.649 18.6478L12.6446 18.645L12.6401 18.6425L12.6357 18.6399L12.6313 18.6371L12.6269 18.6346L12.6225 18.6321L12.6181 18.6293L12.6138 18.6265L12.6094 18.6237L12.6051 18.6212L12.6007 18.6184L12.5964 18.6156L12.5921 18.6129L12.5878 18.6101L12.5835 18.6071L12.5792 18.6043L12.575 18.6015L12.5707 18.5985L12.5665 18.5957L12.5622 18.5927L12.558 18.5897L12.5538 18.5869L12.5496 18.5839L12.5454 18.5809L12.5413 18.5779L12.5371 18.5749L12.5329 18.5719L12.5288 18.5689L12.5247 18.5657L12.5206 18.5627L12.5165 18.5597L12.5124 18.5565L12.5083 18.5534L12.5042 18.5502L12.5002 18.547L12.4962 18.5437L12.4921 18.5407L12.4881 18.5375L12.4841 18.5343L12.4801 18.5308L12.4762 18.5276L12.4722 18.5243L12.4682 18.5211L12.4643 18.5176L12.4604 18.5144L12.4564 18.5112L12.4526 18.5077L12.4487 18.5042L12.4448 18.501L12.4409 18.4975L12.4371 18.4941L12.4333 18.4906L12.4294 18.4871L12.4256 18.4837L12.4219 18.4802L12.4181 18.4767L12.4143 18.473L12.4105 18.4696L12.4068 18.4659L12.4031 18.4624L12.3994 18.4587L12.3957 18.4552L12.392 18.4515L12.3883 18.4478L12.3847 18.4441L12.3811 18.4404L12.3774 18.4367L12.3738 18.433L12.3702 18.4293L12.3667 18.4256L12.3631 18.4219L12.3595 18.418L12.356 18.4143L12.3525 18.4106L12.349 18.4066L12.3455 18.4027L12.342 18.399L12.3385 18.3951L12.3351 18.3911L12.3316 18.3872L12.3282 18.3833L12.3248 18.3794L12.3214 18.3754L12.318 18.3715L12.3146 18.3676L12.3113 18.3636L12.308 18.3595L12.3046 18.3556L12.3014 18.3514L12.2981 18.3475L12.2948 18.3433L12.2916 18.3391L12.2883 18.3352L12.2851 18.331L12.2819 18.3269L12.2787 18.3227L12.2755 18.3186L12.2724 18.3144L12.2692 18.3102L12.2661 18.3061L12.263 18.3019L12.2599 18.2975L12.2568 18.2934L12.2537 18.289L12.2507 18.2848L12.2477 18.2804L12.2446 18.276L12.2417 18.2719L12.2387 18.2675L12.2358 18.2631L12.2328 18.2587L12.2299 18.2543L12.227 18.2499L12.2241 18.2455L12.2212 18.2411L12.2184 18.2367L12.2155 18.2321L12.2127 18.2277L12.2099 18.2233L12.2071 18.2187L12.2043 18.2143L12.2015 18.2097L12.1988 18.2051L12.1961 18.2007L12.1934 18.196L12.1907 18.1914L12.188 18.1868L12.1854 18.1822L12.1827 18.1776L12.1801 18.1729L12.1775 18.1683L12.175 18.1637L12.1724 18.1591L12.1699 18.1544L12.1674 18.1498L12.1649 18.145L12.1624 18.1403L12.16 18.1357L12.1576 18.1309L12.1551 18.1262L12.1528 18.1216L12.1504 18.1168L12.1481 18.1121L12.1457 18.1073L12.1434 18.1026L12.1412 18.0978L12.1389 18.0929L12.1367 18.0883L12.1345 18.0835L12.1323 18.0786L12.1301 18.074L12.1279 18.0691L12.1258 18.0643L12.1237 18.0596L12.1216 18.0548L12.1195 18.0499L12.1175 18.0451L12.1155 18.0402L12.1134 18.0354L12.1115 18.0305L12.1095 18.0257L12.1076 18.0208L12.1056 18.0159L12.1037 18.0111L12.1018 18.0062L12.1 18.0014L12.0981 17.9965L12.0963 17.9914L12.0945 17.9866L12.0928 17.9817L12.091 17.9769L12.0893 17.972L12.0875 17.9669L12.0858 17.9621L12.0842 17.9572L12.0825 17.9522L12.0809 17.9473L12.0793 17.9422L12.0777 17.9374L12.0761 17.9325L12.0745 17.9274L12.073 17.9226L12.0715 17.9175L12.07 17.9124L12.0686 17.9075L12.0671 17.9025L12.0657 17.8976L12.0643 17.8925L12.0629 17.8877L12.0615 17.8826L12.0602 17.8775L12.0589 17.8727L12.0576 17.8676L12.0563 17.8625L12.0551 17.8574L12.0538 17.8525L12.0526 17.8475L12.0514 17.8424L12.0502 17.8373L12.0491 17.8324L12.0479 17.8274L12.0468 17.8223L12.0457 17.8172L12.0446 17.8121L12.0436 17.807L12.0426 17.802L12.0416 17.7969L12.0406 17.7918L12.0396 17.7867L12.0387 17.7818L12.0377 17.7768L12.0368 17.7717L12.036 17.7666L12.0351 17.7613L12.0343 17.7564L12.0334 17.7511L12.0326 17.746L12.0319 17.7409L12.0311 17.7359L12.0304 17.7308L12.0296 17.7257L12.0289 17.7206L12.0283 17.7155L12.0276 17.7104L12.027 17.7054L12.0264 17.7003L12.0258 17.695L12.0252 17.6899L12.0247 17.6848L12.0241 17.6797L12.0236 17.6746L12.0231 17.6696L12.0226 17.6642L12.0222 17.6592L12.0218 17.6541L12.0214 17.649L12.021 17.6439L12.0206 17.6386L12.0203 17.6335L12.02 17.6284L12.0197 17.6233L12.0194 17.6183L12.0191 17.6129L12.0189 17.6079L12.0187 17.6028L12.0185 17.5977L12.0183 17.5924L12.0181 17.5873L12.018 17.5822L12.0179 17.5771L12.0178 17.5718L12.0177 17.5667L12.0176 17.5616L12.0176 17.5566V17.5462L12.0176 17.5411L12.0177 17.536L12.0178 17.5307L12.0179 17.5256L12.018 17.5205L12.0181 17.5154L12.0183 17.5101L12.0185 17.505L12.0187 17.4999L12.0189 17.4949L12.0191 17.4895L12.0194 17.4845L12.0197 17.4794L12.02 17.4743L12.0203 17.469L12.0206 17.4639L12.021 17.4588L12.0214 17.4537L12.0218 17.4487L12.0222 17.4436L12.0226 17.4383L12.0231 17.4332L12.0236 17.4281L12.0241 17.423L12.0247 17.4179L12.0252 17.4126L12.0258 17.4075L12.0264 17.4024L12.027 17.3974L12.0276 17.3923L12.0283 17.3872L12.0289 17.3821L12.0296 17.377L12.0304 17.3717L12.0311 17.3666L12.0319 17.3616L12.0326 17.3565L12.0334 17.3514L12.0343 17.3463L12.0351 17.3412L12.036 17.3361L12.0368 17.3311L12.0377 17.326L12.0387 17.3209L12.0396 17.3158L12.0406 17.3107L12.0416 17.3056L12.0426 17.3006L12.0436 17.2957L12.0446 17.2906L12.0457 17.2855L12.0468 17.2805L12.0479 17.2754L12.0491 17.2703L12.0502 17.2652L12.0514 17.2604L12.0526 17.2553L12.0538 17.2502L12.0551 17.2451L12.0563 17.2403L12.0576 17.2352L12.0589 17.2301L12.0602 17.225L12.0615 17.2201L12.0629 17.2151L12.0643 17.21L12.0657 17.2051L12.0671 17.2L12.0686 17.1952L12.07 17.1901L12.0715 17.1853L12.073 17.1802L12.0745 17.1753L12.0761 17.1702L12.0777 17.1654L12.0793 17.1603L12.0809 17.1554L12.0825 17.1504L12.0842 17.1455L12.0858 17.1406L12.0875 17.1358L12.0893 17.1307L12.091 17.1259L12.0928 17.121L12.0945 17.1161L12.0963 17.1111L12.0981 17.1062L12.1 17.1013L12.1018 17.0965L12.1037 17.0916L12.1056 17.0868L12.1076 17.0819L12.1095 17.0771L12.1115 17.0722L12.1134 17.0674L12.1155 17.0625L12.1175 17.0577L12.1195 17.0528L12.1216 17.0479L12.1237 17.0431L12.1258 17.0382L12.1279 17.0336L12.1301 17.0288L12.1323 17.0239L12.1345 17.0193L12.1367 17.0144L12.1389 17.0096L12.1412 17.0049L12.1434 17.0001L12.1457 16.9952L12.1481 16.9906L12.1504 16.986L12.1527 16.9811L12.1551 16.9765L12.1576 16.9711L12.16 16.9665L12.1624 16.9619L12.1649 16.9573L12.1674 16.9524L12.1699 16.9478L12.1724 16.9432L12.1749 16.9385L12.1775 16.9339L12.1801 16.9293L12.1827 16.9244L12.1854 16.92L12.188 16.9154L14.2241 13.3887L17.3593 18.8188ZM28.3747 18.8188H18.4249L14.7569 12.4656L19.8379 3.66504H28.2718L28.3747 18.8188ZM12.4343 17.057L12.432 17.0609L12.43 17.0644L12.428 17.0678L12.426 17.0715L12.424 17.0752L12.4219 17.0789L12.42 17.0824L12.4181 17.0861L12.4161 17.0898L12.4142 17.0932L12.4123 17.0969L12.4104 17.1006L12.4085 17.1043L12.4067 17.1078L12.4049 17.1115L12.403 17.1154L12.4013 17.1189L12.3995 17.1226L12.3977 17.1263L12.396 17.13L12.3942 17.1337L12.3925 17.1374L12.3908 17.1413L12.3891 17.1448L12.3875 17.1485L12.3858 17.1524L12.3841 17.1561L12.3825 17.1598L12.3809 17.1635L12.3793 17.1672L12.3777 17.1711L12.3762 17.1748L12.3746 17.1785L12.3731 17.1822L12.3716 17.1861L12.3701 17.1898L12.3686 17.1935L12.3672 17.1975L12.3657 17.2012L12.3643 17.2051L12.3629 17.2088L12.3615 17.2125L12.3601 17.2164L12.3587 17.2204L12.3574 17.2241L12.3561 17.2278L12.3547 17.2317L12.3534 17.2356L12.3522 17.2393L12.3509 17.2432L12.3496 17.2469L12.3484 17.2509L12.3472 17.2548L12.346 17.2585L12.3448 17.2624L12.3436 17.2664L12.3425 17.27L12.3413 17.274L12.3402 17.2779L12.3391 17.2816L12.338 17.2858L12.337 17.2895L12.3359 17.2934L12.3348 17.2973L12.3338 17.3012L12.3328 17.3052L12.3318 17.3089L12.3308 17.3128L12.3299 17.3167L12.3289 17.3207L12.328 17.3246L12.3271 17.3285L12.3262 17.3325L12.3253 17.3364L12.3244 17.3403L12.3236 17.3442L12.3228 17.3482L12.322 17.3521L12.3211 17.356L12.3204 17.36L12.3196 17.3639L12.3189 17.3678L12.3181 17.3717L12.3174 17.3757L12.3167 17.3796L12.316 17.3835L12.3154 17.3875L12.3147 17.3914L12.3141 17.3955L12.3134 17.3992L12.3128 17.4034L12.3122 17.4073L12.3117 17.4113L12.3111 17.4152L12.3106 17.4191L12.31 17.4231L12.3095 17.427L12.309 17.4311L12.3085 17.4351L12.3081 17.439L12.3076 17.4429L12.3072 17.4471L12.3068 17.451L12.3064 17.4549L12.306 17.4589L12.3057 17.463L12.3053 17.467L12.305 17.4709L12.3047 17.4748L12.3044 17.4788L12.3041 17.4829L12.3038 17.4868L12.3036 17.4908L12.3033 17.4949L12.3031 17.4989L12.3029 17.5028L12.3027 17.5067L12.3026 17.5109L12.3024 17.5148L12.3023 17.5187L12.3021 17.5227L12.302 17.5268L12.3019 17.5308L12.3019 17.5347L12.3018 17.5386L12.3018 17.5428L12.3018 17.5467V17.5548L12.3018 17.5587L12.3019 17.5666L12.3019 17.5708L12.302 17.5747L12.3021 17.5786L12.3023 17.5828L12.3024 17.5867L12.3026 17.5906L12.3027 17.5948L12.3029 17.5987L12.3033 17.6066L12.3036 17.6108L12.3038 17.6147L12.3044 17.6225L12.3047 17.6267L12.305 17.6306L12.3057 17.6385L12.306 17.6427L12.3068 17.6505L12.3076 17.6584L12.3081 17.6626L12.3085 17.6665L12.3095 17.6743L12.31 17.6783L12.3111 17.6861L12.3117 17.6903L12.3122 17.6942L12.3134 17.7021L12.3147 17.71L12.3154 17.7141L12.316 17.718L12.3174 17.7259L12.3181 17.7298L12.3196 17.7377L12.3204 17.7416L12.3212 17.7456L12.3228 17.7534L12.3236 17.7574L12.3253 17.7652L12.3262 17.7692L12.328 17.777L12.3289 17.7809L12.3299 17.7846L12.3308 17.7888L12.3318 17.7925L12.3328 17.7964L12.3348 17.8043L12.3359 17.8082L12.3369 17.8122L12.338 17.8159L12.3391 17.8198L12.3402 17.8237L12.3413 17.8276L12.3436 17.8353L12.3448 17.8392L12.346 17.8429L12.3484 17.8508L12.3496 17.8545L12.3509 17.8584L12.3522 17.8623L12.3534 17.866L12.3547 17.8699L12.356 17.8736L12.3574 17.8776L12.3587 17.8813L12.3601 17.8852L12.3615 17.8889L12.3629 17.8928L12.3643 17.8965L12.3657 17.9004L12.3686 17.9078L12.3701 17.9118L12.3716 17.9155L12.3731 17.9192L12.3746 17.9231L12.3762 17.9268L12.3809 17.9379L12.3825 17.9418L12.3841 17.9455L12.3858 17.9492L12.3875 17.9529L12.3891 17.9566L12.3908 17.9605L12.3942 17.968L12.396 17.9714L12.3977 17.9751L12.3995 17.979L12.4012 17.9825L12.4031 17.9862L12.4049 17.9899L12.4067 17.9936L12.4086 17.9973L12.4104 18.001L12.4123 18.0045L12.4181 18.0156L12.42 18.0193L12.4219 18.0227L12.4239 18.0264L12.426 18.0301L12.428 18.0336L12.4299 18.0373L12.432 18.0408L12.434 18.0445L12.4361 18.0479L12.4383 18.0516L12.4404 18.0551L12.4424 18.0586L12.4445 18.062L12.4467 18.0657L12.4489 18.0692L12.451 18.0726L12.4532 18.0761L12.4554 18.0796L12.4576 18.083L12.4598 18.0865L12.4621 18.09L12.4643 18.0932L12.4688 18.1002L12.4711 18.1034L12.4734 18.1069L12.4757 18.1103L12.478 18.1136L12.4803 18.117L12.485 18.1235L12.4874 18.127L12.4898 18.1302L12.4946 18.1367L12.497 18.1399L12.4994 18.1431L12.5019 18.1466L12.5043 18.1496L12.5067 18.1528L12.5118 18.1593L12.5143 18.1623L12.5167 18.1656L12.5193 18.1688L12.5219 18.172L12.5244 18.175L12.5269 18.178L12.5295 18.1813L12.5321 18.1843L12.5348 18.1875L12.5373 18.1905L12.54 18.1935L12.5426 18.1965L12.5452 18.1995L12.5479 18.2028L12.5506 18.2055L12.5533 18.2085L12.5559 18.2115L12.5587 18.2145L12.5614 18.2176L12.5641 18.2206L12.5668 18.2233L12.5696 18.2263L12.5724 18.2293L12.5751 18.2321L12.5779 18.2349L12.5807 18.2379L12.5835 18.2409L12.5891 18.2465L12.592 18.2492L12.5948 18.252L12.5977 18.2548L12.6005 18.2576L12.6035 18.2606L12.6064 18.2631L12.6092 18.2659L12.6122 18.2687L12.6151 18.2714L12.618 18.274L12.6209 18.2768L12.624 18.2795L12.627 18.2823L12.6298 18.2849L12.6328 18.2874L12.6358 18.2902L12.6389 18.2927L12.6419 18.2955L12.6449 18.298L12.648 18.3006L12.651 18.3031L12.6541 18.3057L12.6571 18.3082L12.6602 18.3107L12.6633 18.3133L12.6664 18.3158L12.6695 18.3181L12.6727 18.3207L12.6758 18.3232L12.6788 18.3255L12.682 18.3281L12.6853 18.3306L12.6884 18.3329L12.6915 18.3352L12.6948 18.3378L12.6979 18.3401L12.7011 18.3424L12.7044 18.345L12.7076 18.3473L12.7109 18.3496L12.7141 18.3519L12.7173 18.354L12.7205 18.3563L12.7239 18.3586L12.7272 18.3609L12.7338 18.3656L12.737 18.3676L12.7403 18.3697L12.7437 18.372L12.7469 18.3741L12.7503 18.3764L12.7538 18.3785L12.7603 18.3827L12.7638 18.385L12.7672 18.3871L12.7705 18.3892L12.7739 18.391L12.7877 18.3993L12.7912 18.4014L12.7946 18.4033L12.7979 18.4051L12.8015 18.4072L12.8051 18.4093L12.8085 18.4111L12.812 18.413L12.8154 18.4148L12.8189 18.4167L12.8225 18.4188L12.826 18.4206L12.8296 18.4225L12.8331 18.4241L12.8366 18.426L12.8438 18.4297L12.8473 18.4313L12.8545 18.435L12.858 18.4366L12.8617 18.4384L12.8654 18.4401L12.8689 18.4417L12.8725 18.4433L12.8761 18.4452L12.8799 18.4468L12.8834 18.4484L12.8871 18.45L12.8907 18.4516L12.8944 18.453L12.8981 18.4546L12.9018 18.4563L12.9055 18.458L12.9091 18.4594L12.9167 18.4626L12.9204 18.464L12.9241 18.4654L12.9277 18.4668L12.9315 18.4684L12.9389 18.4712L12.9428 18.4726L12.9465 18.474L12.9503 18.4754L12.9541 18.4767L12.9578 18.4779L12.9617 18.4793L12.9654 18.4807L12.9692 18.4818L12.9731 18.4832L12.9769 18.4844L12.9807 18.4858L12.9882 18.4881L12.9921 18.4892L12.996 18.4906L13.0036 18.4929L13.0076 18.4941L13.0113 18.495L13.0152 18.4962L13.0192 18.4973L13.023 18.4985L13.0269 18.4994L13.0309 18.5006L13.0348 18.5015L13.0385 18.5027L13.0424 18.5036L13.0465 18.5045L13.0504 18.5057L13.0541 18.5066L13.0581 18.5075L13.0622 18.5085L13.0661 18.5094L13.07 18.5101L13.074 18.511L13.0778 18.5119L13.0819 18.5129L13.0859 18.5135L13.0897 18.5145L13.0938 18.5152L13.0978 18.5161L13.1016 18.5168L13.1056 18.5175L13.1097 18.5182L13.1137 18.5189L13.1178 18.5196L13.1256 18.521L13.1298 18.5216L13.1338 18.5223L13.1377 18.5228L13.1418 18.5235L13.1458 18.5242L13.1499 18.5247L13.154 18.5254L13.1579 18.5258L13.162 18.5263L13.1702 18.5272L13.1742 18.5279L13.1782 18.5284L13.1822 18.5286L13.1863 18.5291L13.1906 18.5295L13.1945 18.53L13.1985 18.5302L13.2028 18.5307L13.2068 18.5309L13.2108 18.5314L13.2151 18.5316L13.2191 18.5318L13.2231 18.5323L13.2273 18.5325L13.2315 18.5328L13.2356 18.533L13.2397 18.5332L13.2437 18.5335H13.2479L13.2521 18.5337L13.2562 18.5339H13.2602L13.2644 18.5341H13.2727L13.2768 18.5344H16.8672L14.2241 13.9565L12.4343 17.057ZM20.002 3.94924L15.085 12.4656L18.589 18.5346H28.0887L27.9897 3.94924H20.002Z" fill="url(#paint1_linear_2004_20)"/>
</g>
</g>
<defs>
<radialGradient id="paint0_radial_2004_20" cx="0" cy="0" r="1" gradientUnits="userSpaceOnUse" gradientTransform="translate(22.2594 -0.288625) scale(28.13 28.13)">
<stop stop-color="#6BE1FB"/>
<stop offset="1" stop-color="#38BDFA"/>
</radialGradient>
<linearGradient id="paint1_linear_2004_20" x1="15.8842" y1="27.85" x2="15.8837" y2="4.17078" gradientUnits="userSpaceOnUse">
<stop stop-color="#4AC5FA"/>
<stop offset="1" stop-color="#97E8FC"/>
</linearGradient>
<clipPath id="clip0_2004_20">
<rect width="24" height="24" fill="white" transform="translate(4 4)"/>
</clipPath>
</defs>
</svg>
