<svg width="32" height="32" viewBox="0 0 32 32" fill="none" xmlns="http://www.w3.org/2000/svg">
<rect width="32" height="32" fill="white"/>
<path fill-rule="evenodd" clip-rule="evenodd" d="M5.95007 21.835C5.95007 21.835 8.95007 25.7238 9.13007 25.8963C9.56507 26.3125 10.1538 26.53 10.7538 26.4963C13.8926 26.3388 21.0813 25.9788 24.0926 25.8288C25.2588 25.7688 26.1738 24.8088 26.1776 23.6425L26.2151 10.33C26.2151 9.58379 25.8288 8.89379 25.1951 8.50379C24.0738 7.81379 21.8538 6.44504 21.1826 5.99879C20.6351 5.63504 19.9826 5.46254 19.3226 5.50379C17.0876 5.64629 10.5288 6.07004 7.75382 6.24629C6.64382 6.31754 5.78882 7.22879 5.78882 8.32379V21.3663C5.78882 21.535 5.84507 21.7 5.95007 21.8313V21.835ZM24.7038 10.9938V11.0013L24.6663 23.6388C24.6663 24.0025 24.3776 24.3025 24.0138 24.3213L10.6751 24.9888C10.4876 25 10.3038 24.9288 10.1688 24.8013C10.0338 24.6738 9.95507 24.4938 9.95507 24.3063V11.7663C9.95507 11.4025 10.2363 11.1025 10.6001 11.0838L23.9763 10.3113C24.1638 10.3 24.3476 10.3675 24.4863 10.4988C24.6213 10.6263 24.7001 10.8063 24.7001 10.9938H24.7038ZM20.2113 19.0263V13.8813C19.9751 13.6113 19.6001 13.63 19.0601 13.465C19.0226 13.4538 18.9888 13.4238 18.9738 13.3863C18.9588 13.3488 18.9626 13.3038 18.9851 13.27C19.6301 12.3213 21.4713 12.9138 22.6713 12.535C22.7051 12.5238 22.7463 12.5275 22.7763 12.5538C22.8063 12.58 22.8176 12.6175 22.8101 12.655C22.6938 13.1763 22.2851 13.4425 21.7038 13.555V22.0188C21.7038 22.3 21.5351 22.5588 21.2726 22.6638C21.0326 22.7613 20.7813 22.8663 20.7813 22.8663C20.2038 23.1663 19.4951 22.975 19.1426 22.4275L14.8451 15.7263V21.8275C15.0776 22.0975 15.4563 22.0788 15.9963 22.2438C16.0338 22.255 16.0676 22.285 16.0826 22.3225C16.0976 22.36 16.0938 22.405 16.0713 22.4388C15.4226 23.3875 13.5851 22.795 12.3851 23.1738C12.3513 23.1888 12.3101 23.1813 12.2801 23.155C12.2501 23.1325 12.2388 23.0913 12.2463 23.0538C12.3626 22.5325 12.7713 22.2663 13.3526 22.1538V14.1625L12.2201 14.0538C12.2201 14.0538 12.2988 13.135 13.3788 13.03C13.9113 12.9775 15.3026 12.9175 15.8051 12.895C15.9176 12.8913 16.0263 12.9438 16.0938 13.0375L20.2151 19.0188L20.2113 19.0263ZM9.63632 9.35504C9.84257 9.51254 10.1013 9.59129 10.3601 9.57629C12.2688 9.46754 20.4176 9.00254 22.4388 8.88629C22.5026 8.88254 22.5551 8.83754 22.5701 8.77754C22.5851 8.71754 22.5588 8.65379 22.5063 8.62004C21.6101 8.06129 20.7288 7.51379 20.3463 7.25879C20.0726 7.07879 19.7463 6.99254 19.4163 7.01129C19.4163 7.01129 10.1538 7.52129 8.24882 7.72754C8.00882 7.75379 7.95632 7.84004 7.94882 7.87379C7.91507 7.99004 7.95632 8.07629 8.05007 8.15129C8.43257 8.44379 9.20132 9.02504 9.63632 9.35504Z" fill="#070707"/>
</svg>
